<svg xmlns="http://www.w3.org/2000/svg" viewBox="0 0 180 180" role="img" aria-labelledby="title desc">
  <title id="title">Atmosbyte touch icon</title>
  <desc id="desc">Rounded green square with a luminous cloud and grounding bar</desc>
  <defs>
    <linearGradient id="bg" x1="20" y1="171" x2="161" y2="18" gradientUnits="userSpaceOnUse">
      <stop offset="0" stop-color="#0d5f1e" />
      <stop offset="0.52" stop-color="#25983a" />
      <stop offset="1" stop-color="#39be57" />
    </linearGradient>
    <linearGradient id="cloud" x1="57" y1="105" x2="128" y2="47" gradientUnits="userSpaceOnUse">
      <stop offset="0" stop-color="#79ecb6" />
      <stop offset="0.58" stop-color="#c8ffd8" />
      <stop offset="1" stop-color="#e9fff2" />
    </linearGradient>
    <linearGradient id="bar" x1="61" y1="137" x2="122" y2="145" gradientUnits="userSpaceOnUse">
      <stop offset="0" stop-color="#014d1d" />
      <stop offset="1" stop-color="#08361b" />
    </linearGradient>
    <filter id="softShadow" x="-20%" y="-20%" width="140%" height="160%">
      <feDropShadow dx="0" dy="1.5" stdDeviation="1.7" flood-color="#083f17" flood-opacity="0.34" />
    </filter>
  </defs>
  <rect width="180" height="180" rx="25" fill="url(#bg)" />
  <path d="M11 19 69 77 69 19Z" fill="#ffffff" opacity="0.05" />
  <path d="M69 19 130 77 157 50 157 19Z" fill="#ffffff" opacity="0.07" />
  <path d="M130 77 172 119 172 41Z" fill="#ffffff" opacity="0.05" />
  <path d="M24 172 81 118 42 77 11 111 11 161Z" fill="#000000" opacity="0.05" />
  <path d="M81 118 124 77 169 123 169 172 90 172Z" fill="#000000" opacity="0.04" />
  <path d="M67.5 125c-10.65 0-18.96-7.47-21.27-16.58-1.02.16-2.04.23-3.14.23-12.14 0-21.95-9.96-21.95-22.26s9.81-22.34 21.95-22.34c1.47 0 2.88.16 4.27.39C51.8 50.77 65.58 38.75 82.51 38.75c21.03 0 38.09 17.29 38.09 38.59 0 .71 0 1.43-.08 2.14a18.21 18.21 0 0 1 4.13-.47c12.14 0 21.95 9.96 21.95 22.26 0 12.38-9.81 22.34-21.95 22.34Z" fill="url(#cloud)" filter="url(#softShadow)" />
  <path d="M67.5 125c-10.65 0-18.96-7.47-21.27-16.58-1.02.16-2.04.23-3.14.23-12.14 0-21.95-9.96-21.95-22.26s9.81-22.34 21.95-22.34c1.47 0 2.88.16 4.27.39C51.8 50.77 65.58 38.75 82.51 38.75c21.03 0 38.09 17.29 38.09 38.59 0 .71 0 1.43-.08 2.14a18.21 18.21 0 0 1 4.13-.47c12.14 0 21.95 9.96 21.95 22.26 0 12.38-9.81 22.34-21.95 22.34Z" fill="none" stroke="#d8ffe5" stroke-width="1" opacity="0.92" />
  <rect x="59.5" y="135.5" width="62" height="11.5" rx="5.75" fill="url(#bar)" filter="url(#softShadow)" />
  <rect x="59.5" y="135.5" width="62" height="11.5" rx="5.75" fill="none" stroke="#0b7a31" stroke-width="1" opacity="0.55" />
</svg>
