<svg xmlns="http://www.w3.org/2000/svg" viewBox="0 0 512 512" role="img" aria-labelledby="title desc">
  <title id="title">Atmosbyte app icon</title>
  <desc id="desc">Rounded green square with a luminous cloud and grounding bar</desc>
  <defs>
    <linearGradient id="bg" x1="58" y1="486" x2="458" y2="52" gradientUnits="userSpaceOnUse">
      <stop offset="0" stop-color="#0d5f1e" />
      <stop offset="0.52" stop-color="#25983a" />
      <stop offset="1" stop-color="#39be57" />
    </linearGradient>
    <linearGradient id="cloud" x1="163" y1="299" x2="364" y2="136" gradientUnits="userSpaceOnUse">
      <stop offset="0" stop-color="#79ecb6" />
      <stop offset="0.58" stop-color="#c8ffd8" />
      <stop offset="1" stop-color="#e9fff2" />
    </linearGradient>
    <linearGradient id="bar" x1="174" y1="390" x2="348" y2="411" gradientUnits="userSpaceOnUse">
      <stop offset="0" stop-color="#014d1d" />
      <stop offset="1" stop-color="#08361b" />
    </linearGradient>
    <filter id="softShadow" x="-20%" y="-20%" width="140%" height="160%">
      <feDropShadow dx="0" dy="4" stdDeviation="4.8" flood-color="#083f17" flood-opacity="0.34" />
    </filter>
  </defs>
  <rect width="512" height="512" rx="70" fill="url(#bg)" />
  <path d="M32 54 198 220 198 54Z" fill="#ffffff" opacity="0.05" />
  <path d="M198 54 370 220 446 143 446 54Z" fill="#ffffff" opacity="0.07" />
  <path d="M370 220 490 340 490 118Z" fill="#ffffff" opacity="0.05" />
  <path d="M71 490 228 335 119 220 32 309 32 458Z" fill="#000000" opacity="0.05" />
  <path d="M228 335 351 220 481 350 481 490 255 490Z" fill="#000000" opacity="0.04" />
  <path d="M192 355c-30.28 0-53.87-21.24-60.45-47.14-2.91.46-5.79.66-8.9.66-34.5 0-62.36-28.32-62.36-63.24 0-34.92 27.86-63.44 62.36-63.44 4.18 0 8.19.46 12.15 1.11C147.46 140.86 186.67 106.67 234.83 106.67c59.81 0 108.32 49.18 108.32 109.76 0 2.03 0 4.05-.22 6.08a51.74 51.74 0 0 1 11.73-1.33c34.5 0 62.37 28.32 62.37 63.24 0 35.12-27.87 63.44-62.37 63.44Z" fill="url(#cloud)" filter="url(#softShadow)" />
  <path d="M192 355c-30.28 0-53.87-21.24-60.45-47.14-2.91.46-5.79.66-8.9.66-34.5 0-62.36-28.32-62.36-63.24 0-34.92 27.86-63.44 62.36-63.44 4.18 0 8.19.46 12.15 1.11C147.46 140.86 186.67 106.67 234.83 106.67c59.81 0 108.32 49.18 108.32 109.76 0 2.03 0 4.05-.22 6.08a51.74 51.74 0 0 1 11.73-1.33c34.5 0 62.37 28.32 62.37 63.24 0 35.12-27.87 63.44-62.37 63.44Z" fill="none" stroke="#d8ffe5" stroke-width="3" opacity="0.92" />
  <rect x="169" y="385" width="179" height="34" rx="17" fill="url(#bar)" filter="url(#softShadow)" />
  <rect x="169" y="385" width="179" height="34" rx="17" fill="none" stroke="#0b7a31" stroke-width="3" opacity="0.55" />
</svg>
