<svg xmlns="http://www.w3.org/2000/svg" viewBox="0 0 192 192" role="img" aria-labelledby="title desc">
  <title id="title">Atmosbyte app icon</title>
  <desc id="desc">Rounded green square with a luminous cloud and grounding bar</desc>
  <defs>
    <linearGradient id="bg" x1="22" y1="182" x2="172" y2="20" gradientUnits="userSpaceOnUse">
      <stop offset="0" stop-color="#0d5f1e" />
      <stop offset="0.52" stop-color="#25983a" />
      <stop offset="1" stop-color="#39be57" />
    </linearGradient>
    <linearGradient id="cloud" x1="61" y1="112" x2="136" y2="51" gradientUnits="userSpaceOnUse">
      <stop offset="0" stop-color="#79ecb6" />
      <stop offset="0.58" stop-color="#c8ffd8" />
      <stop offset="1" stop-color="#e9fff2" />
    </linearGradient>
    <linearGradient id="bar" x1="65" y1="146" x2="130" y2="154" gradientUnits="userSpaceOnUse">
      <stop offset="0" stop-color="#014d1d" />
      <stop offset="1" stop-color="#08361b" />
    </linearGradient>
    <filter id="softShadow" x="-20%" y="-20%" width="140%" height="160%">
      <feDropShadow dx="0" dy="1.6" stdDeviation="1.8" flood-color="#083f17" flood-opacity="0.34" />
    </filter>
  </defs>
  <rect width="192" height="192" rx="26" fill="url(#bg)" />
  <path d="M12 20 74 84 74 20Z" fill="#ffffff" opacity="0.05" />
  <path d="M74 20 139 84 168 54 168 20Z" fill="#ffffff" opacity="0.07" />
  <path d="M139 84 184 128 184 44Z" fill="#ffffff" opacity="0.05" />
  <path d="M26 184 86 126 44 84 12 118 12 172Z" fill="#000000" opacity="0.05" />
  <path d="M86 126 132 84 181 132 181 184 96 184Z" fill="#000000" opacity="0.04" />
  <path d="M72 133c-11.36 0-20.2-7.96-22.67-17.67-1.09.17-2.17.25-3.34.25-12.94 0-23.39-10.62-23.39-23.72 0-13.1 10.45-23.8 23.39-23.8 1.57 0 3.07.17 4.56.42C55.3 52.82 70 40 88.06 40c22.43 0 40.62 18.44 40.62 41.16 0 .76 0 1.52-.08 2.28a19.4 19.4 0 0 1 4.4-.5c12.94 0 23.4 10.62 23.4 23.72 0 13.18-10.46 23.8-23.4 23.8Z" fill="url(#cloud)" filter="url(#softShadow)" />
  <path d="M72 133c-11.36 0-20.2-7.96-22.67-17.67-1.09.17-2.17.25-3.34.25-12.94 0-23.39-10.62-23.39-23.72 0-13.1 10.45-23.8 23.39-23.8 1.57 0 3.07.17 4.56.42C55.3 52.82 70 40 88.06 40c22.43 0 40.62 18.44 40.62 41.16 0 .76 0 1.52-.08 2.28a19.4 19.4 0 0 1 4.4-.5c12.94 0 23.4 10.62 23.4 23.72 0 13.18-10.46 23.8-23.4 23.8Z" fill="none" stroke="#d8ffe5" stroke-width="1.1" opacity="0.92" />
  <rect x="63.5" y="144.5" width="67" height="12.5" rx="6.25" fill="url(#bar)" filter="url(#softShadow)" />
  <rect x="63.5" y="144.5" width="67" height="12.5" rx="6.25" fill="none" stroke="#0b7a31" stroke-width="1.1" opacity="0.55" />
</svg>
